{
  "accessors": [
    {
      "bufferView": 2,
      "componentType": 5126,
      "count": 65532,
      "max": [
        40.32794952392578,
        37.79287338256836,
        33.069923400878906
      ],
      "min": [
        -74.04507446289063,
        -85.7928695678711,
        13.236103057861328
      ],
      "type": "VEC3"
    },
    {
      "bufferView": 2,
      "byteOffset": 786384,
      "componentType": 5126,
      "count": 65532,
      "max": [
        0.9969479441642761,
        0.9441705942153931,
        1.0
      ],
      "min": [
        -0.9969255924224854,
        -0.9970986843109131,
        -0.31889501214027405
      ],
      "type": "VEC3"
    },
    {
      "bufferView": 1,
      "componentType": 5126,
      "count": 65532,
      "max": [
        0.5046340227127075,
        0.703154981136322
      ],
      "min": [
        0.2688699960708618,
        0.44839999079704285
      ],
      "type": "VEC2"
    },
    {
      "bufferView": 0,
      "componentType": 5125,
      "count": 356088,
      "type": "SCALAR"
    },
    {
      "bufferView": 2,
      "byteOffset": 1572768,
      "componentType": 5126,
      "count": 65532,
      "max": [
        63.55582809448242,
        85.97577667236328,
        29.650211334228516
      ],
      "min": [
        -63.88663864135742,
        -84.68183135986328,
        13.236103057861328
      ],
      "type": "VEC3"
    },
    {
      "bufferView": 2,
      "byteOffset": 2359152,
      "componentType": 5126,
      "count": 65532,
      "max": [
        0.9993152618408203,
        0.9998763203620911,
        1.0
      ],
      "min": [
        -0.7147218585014343,
        -0.9887798428535461,
        -0.06900302320718765
      ],
      "type": "VEC3"
    },
    {
      "bufferView": 1,
      "byteOffset": 524256,
      "componentType": 5126,
      "count": 65532,
      "max": [
        0.5525149703025818,
        0.8024770021438599
      ],
      "min": [
        0.2898100018501282,
        0.45069101452827454
      ],
      "type": "VEC2"
    },
    {
      "bufferView": 0,
      "byteOffset": 1424352,
      "componentType": 5125,
      "count": 340317,
      "type": "SCALAR"
    },
    {
      "bufferView": 2,
      "byteOffset": 3145536,
      "componentType": 5126,
      "count": 65532,
      "max": [
        72.82637786865234,
        85.68612670898438,
        22.311155319213867
      ],
      "min": [
        -73.79436492919922,
        -85.13630676269531,
        13.236103057861328
      ],
      "type": "VEC3"
    },
    {
      "bufferView": 2,
      "byteOffset": 3931920,
      "componentType": 5126,
      "count": 65532,
      "max": [
        0.9987806677818298,
        0.9928236603736877,
        1.0
      ],
      "min": [
        -0.9940493106842041,
        -0.9962755441665649,
        -0.5178936123847961
      ],
      "type": "VEC3"
    },
    {
      "bufferView": 1,
      "byteOffset": 1048512,
      "componentType": 5126,
      "count": 65532,
      "max": [
        0.5716249942779541,
        0.8018800020217896
      ],
      "min": [
        0.26938700675964355,
        0.449753999710083
      ],
      "type": "VEC2"
    },
    {
      "bufferView": 0,
      "byteOffset": 2785620,
      "componentType": 5125,
      "count": 333405,
      "type": "SCALAR"
    },
    {
      "bufferView": 2,
      "byteOffset": 4718304,
      "componentType": 5126,
      "count": 23620,
      "max": [
        62.90365219116211,
        76.47933959960938,
        21.210296630859375
      ],
      "min": [
        -69.02397918701172,
        -80.36592102050781,
        15.706005096435547
      ],
      "type": "VEC3"
    },
    {
      "bufferView": 2,
      "byteOffset": 5001744,
      "componentType": 5126,
      "count": 23620,
      "max": [
        0.6897401213645935,
        0.8153325319290161,
        0.9999452829360962
      ],
      "min": [
        -0.4685059189796448,
        -0.6037290096282959,
        0.512020468711853
      ],
      "type": "VEC3"
    },
    {
      "bufferView": 1,
      "byteOffset": 1572768,
      "componentType": 5126,
      "count": 23620,
      "max": [
        0.5511699914932251,
        0.7829020023345947
      ],
      "min": [
        0.27922001481056213,
        0.4595870077610016
      ],
      "type": "VEC2"
    },
    {
      "bufferView": 0,
      "byteOffset": 4119240,
      "componentType": 5125,
      "count": 80079,
      "type": "SCALAR"
    }
  ],
  "asset": {
    "extras": {
      "author": "Loïc Norgeot (https://sketchfab.com/norgeotloic)",
      "license": "CC-BY-4.0 (http://creativecommons.org/licenses/by/4.0/)",
      "source": "https://sketchfab.com/3d-models/mt-etna-geological-map-630d92f5d1204a9b83df65424add7863",
      "title": "Mt. Etna - Geological Map"
    },
    "generator": "Sketchfab-12.65.0",
    "version": "2.0"
  },
  "bufferViews": [
    {
      "buffer": 0,
      "byteLength": 4439556,
      "name": "floatBufferViews",
      "target": 34963
    },
    {
      "buffer": 0,
      "byteLength": 1761728,
      "byteOffset": 4439556,
      "byteStride": 8,
      "name": "floatBufferViews",
      "target": 34962
    },
    {
      "buffer": 0,
      "byteLength": 5285184,
      "byteOffset": 6201284,
      "byteStride": 12,
      "name": "floatBufferViews",
      "target": 34962
    }
  ],
  "buffers": [
    {
      "byteLength": 11486468,
      "uri": "scene.bin"
    }
  ],
  "images": [
    {
      "uri": "textures/Material.001_baseColor.jpeg"
    },
    {
      "uri": "textures/Material.001_metallicRoughness.png"
    }
  ],
  "materials": [
    {
      "doubleSided": true,
      "name": "Material.001",
      "pbrMetallicRoughness": {
        "baseColorTexture": {
          "index": 0
        },
        "metallicFactor": 0.0,
        "metallicRoughnessTexture": {
          "index": 1
        }
      }
    }
  ],
  "meshes": [
    {
      "name": "Object_0",
      "primitives": [
        {
          "attributes": {
            "NORMAL": 1,
            "POSITION": 0,
            "TEXCOORD_0": 2
          },
          "indices": 3,
          "material": 0,
          "mode": 4
        }
      ]
    },
    {
      "name": "Object_1",
      "primitives": [
        {
          "attributes": {
            "NORMAL": 5,
            "POSITION": 4,
            "TEXCOORD_0": 6
          },
          "indices": 7,
          "material": 0,
          "mode": 4
        }
      ]
    },
    {
      "name": "Object_2",
      "primitives": [
        {
          "attributes": {
            "NORMAL": 9,
            "POSITION": 8,
            "TEXCOORD_0": 10
          },
          "indices": 11,
          "material": 0,
          "mode": 4
        }
      ]
    },
    {
      "name": "Object_3",
      "primitives": [
        {
          "attributes": {
            "NORMAL": 13,
            "POSITION": 12,
            "TEXCOORD_0": 14
          },
          "indices": 15,
          "material": 0,
          "mode": 4
        }
      ]
    }
  ],
  "nodes": [
    {
      "children": [
        1
      ],
      "matrix": [
        1.0,
        0.0,
        0.0,
        0.0,
        0.0,
        2.220446049250313e-16,
        -1.0,
        0.0,
        0.0,
        1.0,
        2.220446049250313e-16,
        0.0,
        0.0,
        0.0,
        0.0,
        1.0
      ],
      "name": "Sketchfab_model"
    },
    {
      "children": [
        2,
        3,
        4,
        5
      ],
      "name": "etna.obj.cleaner.materialmerger.gles"
    },
    {
      "mesh": 0,
      "name": "Object_2"
    },
    {
      "mesh": 1,
      "name": "Object_3"
    },
    {
      "mesh": 2,
      "name": "Object_4"
    },
    {
      "mesh": 3,
      "name": "Object_5"
    }
  ],
  "samplers": [
    {
      "magFilter": 9729,
      "minFilter": 9987,
      "wrapS": 10497,
      "wrapT": 10497
    }
  ],
  "scene": 0,
  "scenes": [
    {
      "name": "Sketchfab_Scene",
      "nodes": [
        0
      ]
    }
  ],
  "textures": [
    {
      "sampler": 0,
      "source": 0
    },
    {
      "sampler": 0,
      "source": 1
    }
  ]
}
